<svg xmlns="http://www.w3.org/2000/svg" viewBox="0 0 163 63"><path d="m49.5.6c0-.1.1-.2.2-.2h11.2c2.1 0 4 .8 5.5 2.5s2.3 3.7 2.3 6.1-.8 4.4-2.3 6.1-3.4 2.5-5.5 2.5h-7.6c-.1 0-.2.1-.2.2v11c0 .1-.1.2-.2.2h-3.3c-.1 0-.2-.1-.2-.2zm10.9 3.3h-7.1c-.1 0-.2.1-.2.2v9.9c0 .1.1.2.2.2h7.1c1.2 0 2.3-.5 3.2-1.5s1.4-2.2 1.4-3.6-.5-2.6-1.4-3.6c-.9-1.1-2-1.6-3.2-1.6zm27.3 14.8c0 3.2-.8 5.8-2.5 7.7s-4 2.9-7 2.9-5.3-1-7-2.9-2.5-4.5-2.5-7.7.8-5.8 2.5-7.7 4-2.9 7-2.9 5.3 1 7 2.9 2.5 4.5 2.5 7.7zm-5.2 5.2c1.1-1.3 1.6-3.1 1.6-5.2s-.5-3.9-1.6-5.2-2.5-2-4.3-2-3.2.7-4.3 2-1.6 3.1-1.6 5.2.5 3.9 1.6 5.2 2.5 2 4.3 2 3.3-.6 4.3-2zm28.5 5.1h-4.8c-.1 0-.1-.1-.2-.2l-3.7-16.2c0-.1-.1-.2-.2-.2s-.2.1-.3.2l-3.8 16.2c0 .2-.1.2-.2.2h-4.8c-.1 0-.2-.1-.2-.2l-4.5-20.1c0-.1 0-.2.2-.2h3c.1 0 .1.1.2.3l3.3 16.2c.1 0 .2.1.4.1s.3-.1.3-.2l3.8-16.3c.1-.1.1-.2.2-.2h4.7c.1 0 .1.1.2.2l3.8 16.3c0 .1.1.2.2.2s.2-.1.2-.2l3.3-16.3c0-.1.1-.2.2-.2h3.2c.2 0 .2.1.2.2l-4.6 20.1c.1.2 0 .3-.1.3zm23.6-10.4c0 .9-.1 1.4-.3 1.4h-14c-.1 0-.2.1-.2.2 0 1.5.5 2.9 1.5 4s2.3 1.7 4 1.7c2.3 0 3.9-.9 4.9-2.8 0-.1.1-.2.2-.2h3.2c.1 0 .2.1.2.2-.5 2-1.5 3.5-3 4.6s-3.4 1.7-5.5 1.6c-2.8 0-5-1-6.6-2.9-1.6-2-2.5-4.5-2.5-7.8s.8-5.8 2.4-7.7 3.8-2.9 6.8-2.9c2.9 0 5.2 1 6.7 2.9s2.3 4.5 2.2 7.7zm-3.6-1.8c0-1.3-.5-2.6-1.4-3.7s-2.2-1.7-4-1.7c-1.7 0-3.1.6-4 1.8-1 1.2-1.5 2.4-1.5 3.6 0 .1.1.2.2.2h10.5c.1 0 .2-.1.2-.2zm16.8-5.4h-2c-1.5 0-2.8.6-3.7 1.8s-1.4 2.6-1.4 4.3v11.2c0 .1-.1.2-.2.2h-3.3c-.1 0-.2-.1-.2-.2v-20.1c0-.1.1-.2.2-.2h2.9c.1 0 .1.1.2.2l.4 1.8c.1.2.2.3.4 0 1.6-1.6 3.1-2.5 4.6-2.5h2c.3.1.3.1.3.3v3.1s0 .1-.2.1zm-84.4 30c0-1.4-.5-2.5-1.6-3.4s-2.4-1.3-4.1-1.3c-1.6 0-3 .5-4 1.3-1.1.9-1.6 2.1-1.6 3.5 0 1.5.7 2.5 2.1 3.1 1 .4 2.3.8 3.9.9 1.5.3 2.8.6 3.9.8s2.1.6 3.1 1.2c2 1.2 3.1 3.4 3.1 6.6 0 2.3-.8 4.3-2.4 5.9-1.6 1.7-4.1 2.5-7.4 2.5s-5.9-.8-7.6-2.4c-1.8-1.6-2.6-3.5-2.6-5.8 0-.1.1-.2.2-.2h3.3c.1 0 .2.1.2.3 0 1.2.6 2.2 1.7 3.3 1.1 1 2.7 1.5 4.7 1.5s3.5-.5 4.7-1.4c1.2-1 1.7-2.2 1.7-3.8s-.6-2.7-1.9-3.4c-1.1-.6-2.3-.9-3.7-1-1.4-.2-2.5-.4-3.3-.5s-1.7-.4-2.6-.8-1.7-.9-2.3-1.4-1.1-1.3-1.6-2.2c-.4-.9-.6-2-.6-3.2 0-2.5.9-4.4 2.7-5.9s4-2.2 6.6-2.2 4.7.7 6.5 2.1 2.7 3.5 2.8 6.1c0 .1-.1.2-.2.2h-3.3c-.3-.2-.4-.3-.4-.4zm17.3 17.5v3.1c0 .1-.1.2-.2.2h-2.9c-3.4.1-5-1.5-5-4.8v-12.6c0-.1-.1-.2-.2-.2h-3.4c-.1 0-.2-.1-.2-.2v-2.6c0-.1.1-.2.2-.2h3.4c.1 0 .2-.1.2-.2v-5.5c0-.1.1-.2.2-.2h3.2c.1 0 .2.1.2.2v5.5c0 .1.1.2.2.2h4.1c.1 0 .2.1.2.2v2.6c0 .1-.1.2-.2.2h-4.1c-.1 0-.2.1-.2.2v11.8c0 1.3.7 2 2.1 2h2.3c0 .1.1.1.1.3zm22.2 0v3.1c0 .1-.1.2-.2.2h-1.4c-2 0-3.2-.6-3.8-1.9-.1-.2-.2-.2-.4-.1-.6.6-1.4 1.2-2.6 1.6-1.2.5-2.6.7-4.2.7-2.5 0-4.4-.6-5.7-1.8s-2-2.7-2-4.6.7-3.4 2.2-4.6c1.4-1.1 3.5-1.7 6.3-1.7h4.3c.7 0 1.1-.2 1.2-.6v-1.2c0-.7-.3-1.4-.8-2.2s-1.9-1.3-4.2-1.3c-1.6 0-2.7.3-3.5 1s-1.2 1.6-1.2 2.7c0 .1-.1.2-.2.2h-3.3c-.1 0-.2-.1-.2-.2 0-2.3.8-4 2.4-5.3 1.6-1.2 3.7-1.9 6.2-1.9s4.5.6 6 1.9 2.3 3.2 2.3 5.6v8c0 .7.1 1.2.3 1.5s.6.5 1.3.5h.7c.5.2.5.2.5.4zm-6.2-5.8c0-.1-.1-.2-.2-.2h-5.4c-1.9.1-3.1.4-3.8 1s-1 1.3-1 2.1.3 1.6 1 2.2c.6.6 1.7.9 3.1.9 2.1 0 3.7-.5 4.7-1.6s1.6-2.3 1.6-3.8zm17.4 5.8v3.1c0 .1-.1.2-.2.2h-2.9c-3.4.1-5-1.5-5-4.8v-12.6c0-.1-.1-.2-.2-.2h-3.4c-.1 0-.2-.1-.2-.2v-2.6c0-.1.1-.2.2-.2h3.4c.1 0 .2-.1.2-.2v-5.5c0-.1.1-.2.2-.2h3.3c.1 0 .2.1.2.2v5.5c0 .1.1.2.2.2h4.1c.1 0 .2.1.2.2v2.6c0 .1-.1.2-.2.2h-4.1c-.1 0-.2.1-.2.2v11.8c0 1.3.7 2 2.1 2h2.3c-.1.1 0 .1 0 .3zm7.2-25.2v4.3c0 .1-.1.2-.2.2h-4c-.1 0-.2-.1-.2-.2v-4.3c0-.1.1-.2.2-.2h4c.1.1.2.1.2.2zm-.4 8.1v20.1c0 .1-.1.2-.2.2h-3.3c-.1 0-.2-.1-.2-.2v-20.1c0-.1.1-.2.2-.2h3.3c.1 0 .2.1.2.2zm21.8 10.1c0 3.2-.8 5.8-2.5 7.7s-4 2.9-7 2.9-5.3-1-7-2.9-2.5-4.5-2.5-7.7.8-5.8 2.5-7.7 4-2.9 7-2.9 5.3 1 7 2.9c1.7 1.8 2.5 4.4 2.5 7.7zm-5.2 5.2c1.1-1.3 1.6-3.1 1.6-5.2s-.5-3.9-1.6-5.2-2.5-2-4.3-2-3.2.7-4.3 2-1.6 3.1-1.6 5.2.5 3.9 1.6 5.2 2.5 2 4.3 2 3.2-.7 4.3-2zm7.8-15.5h2.9c.1 0 .1.1.2.2l.4 1.8c0 .1.1.2.2.2s.2 0 .2-.1c1.1-1.6 2.8-2.5 5-2.5 2.7 0 4.7.9 6.2 2.7s2.2 4.1 2.2 6.9v11.2c0 .1-.1.2-.2.2h-3.3c-.1 0-.2-.1-.2-.2v-11.2c0-1.7-.4-3.2-1.2-4.4s-2.1-1.8-3.7-1.8-2.9.6-3.9 1.8c-.9 1.2-1.4 2.6-1.4 4.3v11.2c0 .1-.1.2-.2.2h-3.3c-.1 0-.2-.1-.2-.2v-20.1c.1-.1.1-.2.3-.2zm-125.6-40.7c0-.5-.4-.8-.9-.8h-11.4c-.4 0-.8.3-.9.8l-6 61c0 .3.1.5.2.7.2.2.4.3.7.3h23.6c.3 0 .5-.1.7-.3s.3-.4.2-.7zm-11.4 1h9.7l-12.1 23.8zm10 3.3 2.6 25.4h-15.5zm-13.1 27.3h14.6l-17.2 26.1zm-2.1 28.6 18.1-27.4 2.7 27.4z"/></svg>