<?xml version="1.0" encoding="UTF-8"?>
<!-- Generator: Adobe Illustrator 15.0.0, SVG Export Plug-In  -->
<!DOCTYPE svg PUBLIC "-//W3C//DTD SVG 1.1//EN" "http://www.w3.org/Graphics/SVG/1.1/DTD/svg11.dtd">
<svg version="1.1" xmlns="http://www.w3.org/2000/svg" xmlns:xlink="http://www.w3.org/1999/xlink" xmlns:a="http://ns.adobe.com/AdobeSVGViewerExtensions/3.0/" x="0px" y="0px" width="500px" height="300px" viewBox="0 1.1 500 300" style="overflow:visible;enable-background:new 0 1.1 500 300;" xml:space="preserve">
<style type="text/css">
<![CDATA[
	.st0{font-family:'MyriadPro-Regular';}
	.st1{fill-rule:evenodd;clip-rule:evenodd;}
	.st2{fill:#000000;}
	.st3{fill:none;}
	.st4{fill-rule:evenodd;clip-rule:evenodd;fill:#000000;}
	.st5{font-size:24;}
]]>
</style>
<style type="text/css">
<![CDATA[
]]>
</style>
<defs>
</defs>
<rect class="st3" width="500" height="302.1"/>
<path class="st2" d="M305.7,69.6c0,0-0.1-0.1-0.1-0.1c-0.7-0.7-1.9-0.7-2.7,0l-37.7,37.6c-0.7,0.7-0.7,1.9,0,2.7l37.7,37.7  c0.7,0.7,1.9,0.7,2.7,0c0,0,0.1-0.1,0.1-0.1c9.2-10.8,14.7-24.2,14.7-38.9C320.4,93.8,314.9,80.4,305.7,69.6 M294.7,117.6  c-4.5,0-8.3-3.3-9-7.7L296,99.5c4.4,0.7,7.7,4.4,7.7,9C303.7,113.5,299.7,117.6,294.7,117.6"/>
<path class="st2" d="M372,77.1c-5.5-19.3-16.1-36.7-30.2-50.8c-5.9-5.9-15.5-5.9-21.4,0l-30.1,30.1C278.9,49.2,265,44.9,250,44.9  c-15,0-28.9,4.2-40.3,11.5l-30.1-30.1c-5.9-5.9-15.5-5.9-21.4,0c-14.1,14.1-24.6,31.5-30.2,50.8c-0.1,0.3-0.1,0.5-0.1,0.8  c0,1.7,1.4,3,3,3h13.5c8.3,0,15.5-4.7,19.1-11.6c3.6-6.8,8-13,13.2-18.7c0.1-0.1,0.1-0.1,0.2-0.2c2.7-2.7,7-2.7,9.6,0L200,63.8  c-12.6,11.5-20.3,27.3-20.3,44.7c0,14.6,5.5,28.1,14.7,38.9c0,0,0.1,0.1,0.1,0.1c0.7,0.7,1.9,0.7,2.7,0l2.7-2.7  c0.7-0.7,0.7-1.8,0.1-2.6c-8-9.4-12.7-21.1-12.7-33.8c0-8.3,2-16.2,5.7-23.4l16.8,14.1l0,0c-3.8,1.3-6.6,5-6.6,9.3  c0,5.4,4.4,9.8,9.8,9.8c5.4,0,9.8-4.4,9.8-9.8h4.5c1.1,0,1.9-0.8,1.9-1.9c0-0.5-0.2-1-0.6-1.3l-29.5-29.5c1.9-2.3,4-4.5,6.3-6.6  l33.7,33.7c3.1,3.1,3.1,8.1,0,11.2l-30.5,30.5c-4.1,4.1-4.1,10.8,0,15c0.6,0.6,1.2,1.1,1.9,1.5c11.3,6.9,24.9,11,39.5,11  c14.6,0,28.2-4.1,39.5-11c0.7-0.4,1.3-0.9,1.9-1.5c4.1-4.1,4.1-10.8,0-15L261,114.1c-3.1-3.1-3.1-8.1,0-11.2l52.4-52.4  c2.7-2.7,7-2.7,9.6,0c0.1,0.1,0.1,0.1,0.2,0.2c5.2,5.7,9.6,12,13.2,18.7C340,76.3,347.2,81,355.5,81h13.5c1.7,0,3-1.4,3-3  C372.1,77.6,372.1,77.4,372,77.1 M261.8,125.7l24.2,24.2c1.2,1.2,1.2,3.1,0,4.3c-0.2,0.2-0.4,0.3-0.5,0.4  c-10.1,6.2-22.3,9.8-35.5,9.8c-13.2,0-25.4-3.6-35.5-9.8c-0.2-0.1-0.4-0.3-0.5-0.4c-1.2-1.2-1.2-3.1,0-4.3l24.2-24.2  c2.8,3.4,7.1,5.5,11.8,5.5C254.8,131.2,259,129.1,261.8,125.7"/>
<path class="st2" d="M112.6,279.7H99.1v-19.2h12.7c4.2,0,6.8,2,6.8,4.9c0,2.4-1.3,3.7-3.6,4.3c2.5,0.3,4.3,2.2,4.3,4.5  C119.4,276.6,117.4,279.7,112.6,279.7 M109.1,265.4h-1.6v3.2h1.6c1.3,0,1.8-0.7,1.8-1.6C110.9,266.1,110.4,265.4,109.1,265.4   M109.1,271.6h-1.6v3.2h1.6c1.3,0,1.8-0.7,1.8-1.6C110.9,272.3,110.4,271.6,109.1,271.6"/>
<path class="st2" d="M149.6,280.2c-6.1,0-10.5-3.8-10.5-10.1c0-6.3,4.4-10.1,10.4-10.1c6.1,0,10.5,3.8,10.5,10.1  C160,276.4,155.6,280.2,149.6,280.2 M151.4,267.6c0-1.6-0.6-2.9-1.9-2.9c-1.3,0-1.8,1.2-1.8,2.9v4.9c0,1.6,0.5,2.9,1.8,2.9  c1.3,0,1.8-1.2,1.8-2.9V267.6z"/>
<path class="st2" d="M191,280.2c-5.3,0-10.3-2.7-10.3-8.6v-11.1h8.3v12.2c0,1.4,1,2.5,2.7,2.5c1.7,0,2.7-1,2.7-2.5v-12.2h6v11.3  C200.6,277.9,196.4,280.2,191,280.2"/>
<polygon class="st2" points="222.2,279.7 222.2,260.5 230.6,260.5 230.6,273.8 239.4,273.8 239.4,279.7 "/>
<path class="st2" d="M270.4,279.7h-10.2v-19.2h10.2c6,0,10.4,3.4,10.4,9.6C280.9,276.4,276.5,279.7,270.4,279.7 M272.2,268.1  c0-1.6-0.5-2.9-1.8-2.9h-1.8v9.7h1.8c1.3,0,1.8-1.2,1.8-2.9V268.1z"/>
<polygon class="st2" points="301.8,279.7 301.8,260.5 320.1,260.5 320.1,266.1 310.2,266.1 310.2,268 316.6,268 316.6,272.2   310.2,272.2 310.2,274.1 320.1,274.1 320.1,279.7 "/>
<path class="st2" d="M358.3,280.1c-3.7,0-5.2-0.9-5.4-4.2c-0.1-2.3-0.6-3-1.8-3h-1.4v6.9h-8.3v-19.2h13.5c4.2,0,6.8,2,6.8,4.9  c0,2.5-1.6,4.3-4.7,5.1c3.2,0.3,4.1,2,4.3,5.3c0.1,1.9,0.4,2.4,1.5,2.9v0.7C362.3,279.7,361,280.1,358.3,280.1 M351.2,265.4h-1.6  v3.9h1.6c1.3,0,1.8-0.8,1.8-2C353,266.3,352.5,265.4,351.2,265.4"/>
<path class="st2" d="M391.3,280.2c-4.2,0-8.6-1.9-10.1-3.6l4.1-3.6c1.3,1.5,4.4,2.7,6.2,2.7c1.6,0,2.1-0.4,2.1-1  c0-2.3-11.3-1-11.3-8.3c0-3.4,4.2-6.3,9.3-6.3c5.2,0,8.7,2,10.1,3.7l-4.1,3.1c-1.2-1.4-4-2.6-5.5-2.6c-1,0-1.4,0.3-1.4,0.9  c0,2.7,11,1.3,11,8.3C401.8,277.5,397,280.2,391.3,280.2"/>
<path class="st2" d="M285.2,246.3l-2.4-6.7h-13.4l-2.4,6.7h-14.5l18.7-44.9h15.5l17.7,44.9H285.2z M276.1,221.3l-3.5,9.3h6.8  L276.1,221.3z"/>
<polygon class="st2" points="335.7,214.9 335.7,246.3 316.1,246.3 316.1,214.9 302.4,214.9 302.4,201.4 349.5,201.4 349.5,214.9 "/>
<path class="st2" d="M386.6,219.8v-1c0-4.9-2.6-7.5-6.1-7.5c-3.1,0-6.2,1.9-6.2,7.9v9c0,6,3.1,7.9,6.2,7.9c3.5,0,6.1-2.6,6.1-7.5  v-2.8l14.5,1.3c-0.7,11.9-10.1,20.2-21.5,20.2c-14.1,0-25.4-8.9-25.4-23.6c0-14.7,11.3-23.6,25.4-23.6c12.5,0,21.3,9,21.9,19.6  H386.6z"/>
<polygon class="st2" points="439.8,246.3 439.8,229.6 429.5,229.6 429.5,246.3 410,246.3 410,201.4 429.5,201.4 429.5,218.1   439.8,218.1 439.8,201.4 459.3,201.4 459.3,246.3 "/>
<path class="st2" d="M64.6,246.3H40.7v-44.9h23.9c14.1,0,24.4,7.8,24.4,22.4C88.9,238.4,78.7,246.3,64.6,246.3 M68.8,219.1  c0-3.8-1.2-6.7-4.2-6.7h-4.3v22.7h4.3c3.1,0,4.2-2.9,4.2-6.7V219.1z"/>
<path class="st2" d="M120.6,247.4c-14.2,0-24.4-8.9-24.4-23.6c0-14.7,10.3-23.6,24.4-23.6c14.2,0,24.4,8.9,24.4,23.6  C145,238.4,134.7,247.4,120.6,247.4 M124.9,218c-0.1-3.8-1.3-6.7-4.3-6.7c-3.1,0-4.2,2.9-4.2,6.7v11.5c0,3.8,1.2,6.7,4.3,6.7  c3.1,0,4.3-2.9,4.3-6.7V218z"/>
<path class="st2" d="M191.8,246.3l-2.5-4.9c-3.5,4.1-8.9,6.1-15.1,6.1c-10.3,0-22-8.4-22-23.6c0-14.7,11.1-23.6,25.3-23.6  c12.5,0,21.6,8.8,21.6,19.6h-14.9v-1c0-4.9-2.4-7.5-5.9-7.5c-3.1,0-6,1.9-6,7.9v9.1c0,6,2.3,7.9,5.7,7.9c3.6,0,5.2-2.5,5.2-6h-5.1  v-6.5h21.3v22.5H191.8z"/>
<path class="st2" d="M237.1,231.4h-8.3v14.8h-19.6v-44.9h27.9c10.9,0,17.7,6.2,17.7,15C254.8,225.3,248,231.4,237.1,231.4   M232,212.9h-3.2v9.1h3.2c3.6,0,4.6-2.4,4.6-4.6C236.7,215.4,235.6,212.9,232,212.9"/>
</svg>